<?xml version="1.0" encoding="UTF-8"?>
<svg width="154px" height="154px" viewBox="0 0 154 154" version="1.1" xmlns="http://www.w3.org/2000/svg" xmlns:xlink="http://www.w3.org/1999/xlink">
    <!-- Generator: Sketch 52.3 (67297) - http://www.bohemiancoding.com/sketch -->
    <title>Sample Icon</title>
    <desc>Created with Sketch.</desc>
    <g id="Symbols" stroke="none" stroke-width="1" fill="none" fill-rule="evenodd">
        <g id="Home-Section-#3B" transform="translate(-644.000000, -344.000000)">
            <g id="Benefits-#9">
                <g id="Icon-List" transform="translate(167.000000, 346.000000)">
                    <g id="Icons" transform="translate(88.000000, 0.000000)">
                        <g id="Sample-Icon" transform="translate(391.000000, 0.000000)">
                            <g id="Group" transform="translate(38.000000, 49.000000)" fill="#663399">
                                <path d="M61.4002021,39.1466113 L61.4002021,1.56586445 C61.4002021,0.701507275 60.7125199,0 59.8651971,0 L1.53500505,0 C0.687682264,0 0,0.701507275 0,1.56586445 L0,39.1466113 C0,40.0109685 0.687682264,40.7124758 1.53500505,40.7124758 L59.8651971,40.7124758 C60.7125199,40.7124758 61.4002021,40.0109685 61.4002021,39.1466113 L61.4002021,39.1466113 Z M58.330192,37.5807469 L3.07001011,37.5807469 L3.07001011,3.13172891 L58.330192,3.13172891 L58.330192,37.5807469 L58.330192,37.5807469 Z" id="Shape"></path>
                                <path d="M67.5402223,45.4100692 L67.5402223,7.82932227 C67.5402223,6.96496509 66.8525401,6.26345782 66.0052173,6.26345782 C65.1578945,6.26345782 64.4702122,6.96496509 64.4702122,7.82932227 L64.4702122,43.8442047 L7.67502527,43.8442047 C6.82770248,43.8442047 6.14002021,44.545712 6.14002021,45.4100692 C6.14002021,46.2744263 6.82770248,46.9759336 7.67502527,46.9759336 L66.0052173,46.9759336 C66.8525401,46.9759336 67.5402223,46.2744263 67.5402223,45.4100692 L67.5402223,45.4100692 Z" id="Shape"></path>
                                <path d="M72.1452375,12.5269156 C71.2979147,12.5269156 70.6102324,13.2284229 70.6102324,14.0927801 L70.6102324,50.1076625 L13.8150455,50.1076625 C12.9677227,50.1076625 12.2800404,50.8091698 12.2800404,51.673527 C12.2800404,52.5378842 12.9677227,53.2393914 13.8150455,53.2393914 L72.1452375,53.2393914 C72.9925603,53.2393914 73.6802426,52.5378842 73.6802426,51.673527 L73.6802426,14.0927801 C73.6802426,13.2284229 72.9925603,12.5269156 72.1452375,12.5269156 L72.1452375,12.5269156 Z" id="Shape"></path>
                                <path d="M30.7001011,31.3172891 C36.6252206,31.3172891 41.4451364,26.4004747 41.4451364,20.3562379 C41.4451364,14.3120011 36.6252206,9.39518672 30.7001011,9.39518672 C24.7749816,9.39518672 19.9550657,14.3120011 19.9550657,20.3562379 C19.9550657,26.4004747 24.7749816,31.3172891 30.7001011,31.3172891 L30.7001011,31.3172891 Z M30.7001011,12.5269156 C34.933645,12.5269156 38.3751263,16.0407155 38.3751263,20.3562379 C38.3751263,24.6717603 34.933645,28.1855602 30.7001011,28.1855602 C26.4665571,28.1855602 23.0250758,24.6717603 23.0250758,20.3562379 C23.0250758,16.0407155 26.4665571,12.5269156 30.7001011,12.5269156 L30.7001011,12.5269156 Z" id="Shape"></path>
                                <path d="M7.67502527,34.449018 L13.8150455,34.449018 C14.6623683,34.449018 15.3500505,33.7475107 15.3500505,32.8831535 C15.3500505,32.0187964 14.6623683,31.3172891 13.8150455,31.3172891 L7.67502527,31.3172891 C6.82770248,31.3172891 6.14002021,32.0187964 6.14002021,32.8831535 C6.14002021,33.7475107 6.82770248,34.449018 7.67502527,34.449018 L7.67502527,34.449018 Z" id="Shape"></path>
                                <path d="M47.5851566,9.39518672 L53.7251769,9.39518672 C54.5724997,9.39518672 55.2601819,8.69367945 55.2601819,7.82932227 C55.2601819,6.96496509 54.5724997,6.26345782 53.7251769,6.26345782 L47.5851566,6.26345782 C46.7378339,6.26345782 46.0501516,6.96496509 46.0501516,7.82932227 C46.0501516,8.69367945 46.7378339,9.39518672 47.5851566,9.39518672 L47.5851566,9.39518672 Z" id="Shape"></path>
                            </g>
                            <circle id="Border" stroke="#747E80" stroke-width="4" opacity="0.6" cx="75" cy="75" r="75"></circle>
                        </g>
                    </g>
                </g>
            </g>
        </g>
    </g>
</svg>