<?xml version="1.0" encoding="UTF-8"?>
<svg width="40px" height="40px" viewBox="0 0 40 40" version="1.1" xmlns="http://www.w3.org/2000/svg" xmlns:xlink="http://www.w3.org/1999/xlink">
    <!-- Generator: Sketch 52.3 (67297) - http://www.bohemiancoding.com/sketch -->
    <title>tumbler</title>
    <desc>Created with Sketch.</desc>
    <g id="Symbols" stroke="none" stroke-width="1" fill="none" fill-rule="evenodd">
        <g id="Home-Section-#10" transform="translate(-1137.000000, -107.000000)">
            <g id="Footer-#9">
                <g id="Group" transform="translate(150.000000, 72.000000)">
                    <g id="Follow-Us" transform="translate(877.000000, 0.000000)">
                        <g id="Social-Buttons" transform="translate(0.000000, 35.000000)">
                            <g id="tumbler" transform="translate(110.000000, 0.000000)">
                                <circle id="Background" fill="#FFFFFF" cx="20" cy="20" r="20"></circle>
                                <path d="M21.3,12 L21.3,15.5 L24.8,15.5 L24.8,18.3 L21.3,18.3 L21.3,22.1605 C21.3,25.6801 23.764,25.2594 25.5,24.1191 L25.5,27.2222 C20.7904,29.4426 17.1,27.1774 17.1,24.2437 L17.1,18.3 L15,18.3 L15,16.3176 C15.6321,16.1125 16.5715,15.8178 17.0223,15.4349 C17.4745,15.0492 17.8357,14.5893 18.108,14.0517 C18.3817,13.5148 18.57,12.8302 18.6722,12 L21.3,12 L21.3,12 Z" id="Tumblr" fill="#494B4E"></path>
                            </g>
                        </g>
                    </g>
                </g>
            </g>
        </g>
    </g>
</svg>