<?xml version="1.0" encoding="UTF-8"?>
<svg width="154px" height="154px" viewBox="0 0 154 154" version="1.1" xmlns="http://www.w3.org/2000/svg" xmlns:xlink="http://www.w3.org/1999/xlink">
    <!-- Generator: Sketch 52.3 (67297) - http://www.bohemiancoding.com/sketch -->
    <title>Group 3</title>
    <desc>Created with Sketch.</desc>
    <g id="Symbols" stroke="none" stroke-width="1" fill="none" fill-rule="evenodd">
        <g id="Home-Section-#3B" transform="translate(-253.000000, -344.000000)">
            <g id="Benefits-#9">
                <g id="Icon-List" transform="translate(167.000000, 346.000000)">
                    <g id="Icons" transform="translate(88.000000, 0.000000)">
                        <g id="Group-3">
                            <g id="Group" transform="translate(37.000000, 51.000000)" fill="#663399">
                                <path d="M67.5402223,0 L6.14002021,0 C2.75379907,0 0,2.8060291 0,6.26345782 L0,43.8442047 C0,47.2985017 2.75379907,50.1076625 6.14002021,50.1076625 L12.2800404,50.1076625 L61.4002021,50.1076625 L61.4616023,50.1076625 L67.5402223,50.1076625 C70.9264435,50.1076625 73.6802426,47.2985017 73.6802426,43.8442047 L73.6802426,6.26345782 C73.6802426,2.8060291 70.9264435,0 67.5402223,0 L67.5402223,0 Z M15.9855426,46.9759336 L22.1255628,40.7124758 L51.5546797,40.7124758 L57.6946999,46.9759336 L15.9855426,46.9759336 L15.9855426,46.9759336 Z M70.6102324,43.8442047 C70.6102324,45.5697873 69.2317979,46.9759336 67.5402223,46.9759336 L62.0356942,46.9759336 L53.2738854,38.0379793 C52.9883744,37.7467285 52.5984832,37.5807469 52.1901718,37.5807469 L21.4900707,37.5807469 C21.0817594,37.5807469 20.6918681,37.7467285 20.4032872,38.0379793 L11.6445483,46.9759336 L6.14002021,46.9759336 C4.44844464,46.9759336 3.07001011,45.5697873 3.07001011,43.8442047 L3.07001011,6.26345782 C3.07001011,4.53787519 4.44844464,3.13172891 6.14002021,3.13172891 L67.5402223,3.13172891 C69.2317979,3.13172891 70.6102324,4.53787519 70.6102324,6.26345782 L70.6102324,43.8442047 L70.6102324,43.8442047 Z" id="Shape"></path>
                                <path d="M16.8850556,17.224509 C12.6545817,17.224509 9.21003032,20.7383088 9.21003032,25.0538313 C9.21003032,29.3693537 12.6545817,32.8831535 16.8850556,32.8831535 C21.1155295,32.8831535 24.5600809,29.3693537 24.5600809,25.0538313 C24.5600809,20.7383088 21.1155295,17.224509 16.8850556,17.224509 L16.8850556,17.224509 Z M18.4200606,29.4633056 L18.4200606,28.1855602 C18.4200606,27.321203 17.7323784,26.6196957 16.8850556,26.6196957 C16.0377328,26.6196957 15.3500505,27.321203 15.3500505,28.1855602 L15.3500505,29.4633056 C14.0483662,28.9904145 13.0260529,27.9475488 12.5624814,26.6196957 L13.8150455,26.6196957 C14.6623683,26.6196957 15.3500505,25.9181884 15.3500505,25.0538313 C15.3500505,24.1894741 14.6623683,23.4879668 13.8150455,23.4879668 L12.5624814,23.4879668 C13.0260529,22.1601138 14.0483662,21.117248 15.3500505,20.644357 L15.3500505,21.9221024 C15.3500505,22.7864595 16.0377328,23.4879668 16.8850556,23.4879668 C17.7323784,23.4879668 18.4200606,22.7864595 18.4200606,21.9221024 L18.4200606,20.644357 C19.7217449,21.117248 20.7440583,22.1601138 21.2076298,23.4879668 L19.9550657,23.4879668 C19.1077429,23.4879668 18.4200606,24.1894741 18.4200606,25.0538313 C18.4200606,25.9181884 19.1077429,26.6196957 19.9550657,26.6196957 L21.2076298,26.6196957 C20.7440583,27.9475488 19.7217449,28.9904145 18.4200606,29.4633056 L18.4200606,29.4633056 Z" id="Shape"></path>
                                <path d="M44.5151465,18.7903734 L29.165096,18.7903734 C28.3177732,18.7903734 27.630091,19.4918807 27.630091,20.3562379 L27.630091,26.6196957 C27.630091,27.4840529 28.3177732,28.1855602 29.165096,28.1855602 L44.5151465,28.1855602 C45.3624693,28.1855602 46.0501516,27.4840529 46.0501516,26.6196957 L46.0501516,20.3562379 C46.0501516,19.4918807 45.3624693,18.7903734 44.5151465,18.7903734 L44.5151465,18.7903734 Z M42.9801415,25.0538313 L30.7001011,25.0538313 L30.7001011,21.9221024 L42.9801415,21.9221024 L42.9801415,25.0538313 L42.9801415,25.0538313 Z" id="Shape"></path>
                                <path d="M56.795187,17.224509 C52.564713,17.224509 49.1201617,20.7383088 49.1201617,25.0538313 C49.1201617,29.3693537 52.564713,32.8831535 56.795187,32.8831535 C61.0256609,32.8831535 64.4702122,29.3693537 64.4702122,25.0538313 C64.4702122,20.7383088 61.0256609,17.224509 56.795187,17.224509 L56.795187,17.224509 Z M58.330192,29.4633056 L58.330192,28.1855602 C58.330192,27.321203 57.6425098,26.6196957 56.795187,26.6196957 C55.9478642,26.6196957 55.2601819,27.321203 55.2601819,28.1855602 L55.2601819,29.4633056 C53.9584976,28.9904145 52.9361843,27.9475488 52.4726127,26.6196957 L53.7251769,26.6196957 C54.5724997,26.6196957 55.2601819,25.9181884 55.2601819,25.0538313 C55.2601819,24.1894741 54.5724997,23.4879668 53.7251769,23.4879668 L52.4726127,23.4879668 C52.9361843,22.1601138 53.9584976,21.117248 55.2601819,20.644357 L55.2601819,21.9221024 C55.2601819,22.7864595 55.9478642,23.4879668 56.795187,23.4879668 C57.6425098,23.4879668 58.330192,22.7864595 58.330192,21.9221024 L58.330192,20.644357 C59.6318763,21.117248 60.6541897,22.1601138 61.1177612,23.4879668 L59.8651971,23.4879668 C59.0178743,23.4879668 58.330192,24.1894741 58.330192,25.0538313 C58.330192,25.9181884 59.0178743,26.6196957 59.8651971,26.6196957 L61.1177612,26.6196957 C60.6541897,27.9475488 59.6318763,28.9904145 58.330192,29.4633056 L58.330192,29.4633056 Z" id="Shape"></path>
                                <path d="M62.9352072,6.26345782 L10.7450354,6.26345782 C9.89771258,6.26345782 9.21003032,6.96496509 9.21003032,7.82932227 C9.21003032,8.69367945 9.89771258,9.39518672 10.7450354,9.39518672 L62.9352072,9.39518672 C63.78253,9.39518672 64.4702122,8.69367945 64.4702122,7.82932227 C64.4702122,6.96496509 63.78253,6.26345782 62.9352072,6.26345782 L62.9352072,6.26345782 Z" id="Shape"></path>
                            </g>
                            <circle id="Border" stroke="#747E80" stroke-width="4" opacity="0.6" cx="75" cy="75" r="75"></circle>
                        </g>
                    </g>
                </g>
            </g>
        </g>
    </g>
</svg>