<?xml version="1.0" encoding="UTF-8"?>
<svg width="30px" height="31px" viewBox="0 0 30 31" version="1.1" xmlns="http://www.w3.org/2000/svg" xmlns:xlink="http://www.w3.org/1999/xlink">
    <!-- Generator: Sketch 52.3 (67297) - http://www.bohemiancoding.com/sketch -->
    <title>Sample Logo</title>
    <desc>Created with Sketch.</desc>
    <g id="Test" stroke="none" stroke-width="1" fill="none" fill-rule="evenodd">
        <g id="Artboard" transform="translate(-150.000000, -52.000000)" fill="#FBFFFC">
            <g id="Intro-#7">
                <g id="Menu" transform="translate(150.000000, 50.000000)">
                    <path d="M7.93920787,4.33117063 C8.96357335,3.32989535 10.3626299,2.7206288 11.7978961,2.69124126 C12.8568969,2.64191219 13.9300666,2.86861602 14.8646952,3.37240232 C16.0905752,4.01105642 17.0839788,5.07845364 17.6197765,6.35366271 C18.2983137,5.68352198 18.9684544,5.0049848 19.6448925,4.33274496 C20.4771894,3.52931077 21.5445867,2.96307595 22.6901757,2.77520565 C23.8840443,2.58313712 25.1450844,2.68546871 26.2560381,3.18295768 C27.7962598,3.87881251 29.0284371,5.24480807 29.5275004,6.86374634 C29.606217,7.11144127 29.6660416,7.36490876 29.7195689,7.61942579 C28.4112989,8.92822062 27.1046032,10.2391146 25.7926597,11.5437112 C25.7842632,10.7219098 25.7910853,9.89958358 25.7889862,9.0772574 C25.784788,8.79492716 25.8068287,8.50734915 25.7391324,8.23026668 C25.607938,7.61942579 25.1534808,7.09727228 24.5809487,6.85587468 C23.8509833,6.5583259 22.9368211,6.70316446 22.3847553,7.28356826 C19.9067564,9.75999279 17.4303319,12.2385164 14.952333,14.714941 C13.9867426,14.714941 13.0211522,14.7154657 12.0560865,14.714941 C11.0752776,14.7128419 10.0876465,14.4887619 9.22543727,14.0133136 C8.62719104,13.6931994 8.10608708,13.2502873 7.63536176,12.7648682 C7.57973536,12.7003205 7.42859946,12.6121579 7.53617883,12.5229458 C8.21838945,11.8449334 8.89692662,11.1632476 9.5775629,10.4836608 C9.8284065,10.2448871 10.0556351,9.97987452 10.3216973,9.75894324 C10.5436781,9.97515153 10.7462422,10.2175987 11.0096804,10.3860522 C11.3198239,10.5833685 11.6876928,10.6914727 12.0560865,10.6867497 C12.7309503,10.6862249 13.4052892,10.6872745 14.080153,10.6862249 C14.0806777,10.0265797 14.080153,9.3674593 14.0806777,8.70833889 C14.0995697,7.70024151 13.2305384,6.76141475 12.222441,6.70788746 C11.7706076,6.68794591 11.303031,6.79657484 10.9330629,7.06473609 C10.6738229,7.2547055 10.4618128,7.49977655 10.2314355,7.72280694 C7.90824601,10.0585911 5.57561048,12.3844046 3.24664839,14.7144162 C2.24065012,14.7553488 1.2057891,14.5548839 0.340955949,14.0243339 C-0.0851632972,13.76247 -0.444635814,13.394601 -0.684459084,12.9553624 C2.18922194,10.0795822 5.06132863,7.20222776 7.93920787,4.33117063 Z M7.93920787,30.0728574 C5.06132863,27.2018003 2.18922194,24.3244458 -0.684459084,21.4486657 C-0.444635814,21.009427 -0.0851632972,20.641558 0.340955949,20.3796941 C1.2057891,19.8491442 2.24065012,19.6486792 3.24664839,19.6896118 C5.57561048,22.0196235 7.90824601,24.3454369 10.2314355,26.6812211 C10.4618128,26.9042515 10.6738229,27.1493225 10.9330629,27.3392919 C11.303031,27.6074532 11.7706076,27.7160821 12.222441,27.6961406 C13.2305384,27.6426133 14.0995697,26.7037865 14.0806777,25.6956891 C14.080153,25.0365687 14.0806777,24.3774483 14.080153,23.7178031 C13.4052892,23.7167536 12.7309503,23.7178031 12.0560865,23.7172783 C11.6876928,23.7125553 11.3198239,23.8206595 11.0096804,24.0179758 C10.7462422,24.1864293 10.5436781,24.4288765 10.3216973,24.6450848 C10.0556351,24.4241535 9.8284065,24.1591409 9.5775629,23.9203672 C8.89692662,23.2407805 8.21838945,22.5590946 7.53617883,21.8810822 C7.42859946,21.7918701 7.57973536,21.7037075 7.63536176,21.6391599 C8.10608708,21.1537408 8.62719104,20.7108286 9.22543727,20.3907144 C10.0876465,19.9152661 11.0752776,19.6911862 12.0560865,19.689087 C13.0211522,19.6885623 13.9867426,19.689087 14.952333,19.689087 C17.4303319,22.1655116 19.9067564,24.6440352 22.3847553,27.1204598 C22.9368211,27.7008636 23.8509833,27.8457021 24.5809487,27.5481533 C25.1534808,27.3067557 25.607938,26.7846022 25.7391324,26.1737613 C25.8068287,25.8966789 25.784788,25.6091009 25.7889862,25.3267706 C25.7910853,24.5044444 25.7842632,23.6821183 25.7926597,22.8603169 C27.1046032,24.1649135 28.4112989,25.4758074 29.7195689,26.7846022 C29.6660416,27.0391193 29.606217,27.2925867 29.5275004,27.5402817 C29.0284371,29.1592199 27.7962598,30.5252155 26.2560381,31.2210703 C25.1450844,31.7185593 23.8840443,31.8208909 22.6901757,31.6288224 C21.5445867,31.4409521 20.4771894,30.8747173 19.6448925,30.0712831 C18.9684544,29.3990432 18.2983137,28.720506 17.6197765,28.0503653 C17.0839788,29.3255744 16.0905752,30.3929716 14.8646952,31.0316257 C13.9300666,31.535412 12.8568969,31.7621158 11.7978961,31.7127868 C10.3626299,31.6833992 8.96357335,31.0741327 7.93920787,30.0728574 Z" id="Sample-Logo" transform="translate(14.517555, 17.202014) rotate(90.000000) translate(-14.517555, -17.202014) "></path>
                </g>
            </g>
        </g>
    </g>
</svg>