<?xml version="1.0" encoding="UTF-8"?>
<svg width="40px" height="40px" viewBox="0 0 40 40" version="1.1" xmlns="http://www.w3.org/2000/svg" xmlns:xlink="http://www.w3.org/1999/xlink">
    <!-- Generator: Sketch 52.3 (67297) - http://www.bohemiancoding.com/sketch -->
    <title>twitter</title>
    <desc>Created with Sketch.</desc>
    <g id="Symbols" stroke="none" stroke-width="1" fill="none" fill-rule="evenodd">
        <g id="Home-Section-#10" transform="translate(-1027.000000, -107.000000)">
            <g id="Footer-#9">
                <g id="Group" transform="translate(150.000000, 72.000000)">
                    <g id="Follow-Us" transform="translate(877.000000, 0.000000)">
                        <g id="Social-Buttons" transform="translate(0.000000, 35.000000)">
                            <g id="twitter">
                                <circle id="Background" fill="#FFFFFF" cx="20" cy="20" r="20"></circle>
                                <path d="M27.1540733,15.6372741 C27.8572055,15.2457218 27.8894386,14.9705204 28.1435557,14.2306118 C27.4853999,14.593599 26.7560315,14.857653 25.9801873,14.9997823 C25.3602616,14.385282 24.4749746,14 23.4952371,14 C21.6137213,14 20.0890188,15.4185064 20.0890188,17.1658611 C20.0890188,17.4138907 20.1190031,17.6556499 20.1767229,17.8876551 C17.3462035,17.7559765 14.8357667,16.4956238 13.1558954,14.5796647 C12.8627987,15.0471587 12.6948865,15.5912911 12.6948865,16.1716525 C12.6948865,17.270368 13.2968217,18.2387982 14.2098441,18.8066188 C13.6513862,18.7898977 13.1266607,18.6477683 12.6679006,18.4108861 C12.667151,18.4241237 12.667151,18.4366645 12.667151,18.4505987 C12.667151,19.9847594 13.841037,21.2639234 15.4002214,21.5551491 C14.9009826,21.6812541 14.3747578,21.700762 13.8612764,21.6101894 C14.2952994,22.8670586 15.5531414,23.7825386 17.0433619,23.808317 C15.5853746,24.8701067 13.7780699,25.3125191 12,25.118833 C13.5082111,26.0168953 15.2975251,26.540823 17.2217686,26.540823 C23.4869914,26.540823 26.9126995,21.7167864 26.9126995,17.5330285 C26.9126995,17.3950795 26.9104507,17.2592206 26.9037042,17.1233616 C27.5686064,16.6774657 28.3676884,16.2615284 28.8241996,15.6261267 C28.2140188,15.8790333 27.6997878,15.8873939 27.1540733,15.6372741 Z" id="Twitter" fill="#494B4E"></path>
                            </g>
                        </g>
                    </g>
                </g>
            </g>
        </g>
    </g>
</svg>