<?xml version="1.0" encoding="UTF-8"?>
<svg width="40px" height="40px" viewBox="0 0 40 40" version="1.1" xmlns="http://www.w3.org/2000/svg" xmlns:xlink="http://www.w3.org/1999/xlink">
    <!-- Generator: Sketch 52.3 (67297) - http://www.bohemiancoding.com/sketch -->
    <title>vimeo</title>
    <desc>Created with Sketch.</desc>
    <g id="Symbols" stroke="none" stroke-width="1" fill="none" fill-rule="evenodd">
        <g id="Home-Section-#10" transform="translate(-1192.000000, -107.000000)">
            <g id="Footer-#9">
                <g id="Group" transform="translate(150.000000, 72.000000)">
                    <g id="Follow-Us" transform="translate(877.000000, 0.000000)">
                        <g id="Social-Buttons" transform="translate(0.000000, 35.000000)">
                            <g id="vimeo" transform="translate(165.000000, 0.000000)">
                                <circle id="Background" fill="#FFFFFF" cx="20" cy="20" r="20"></circle>
                                <path d="M27.9419752,16.7744377 C27.8725766,18.1268333 26.7865829,19.9755435 24.6914966,22.3213857 C22.5232604,24.7743403 20.6860741,26 19.1846269,26 C18.2561866,26 17.469357,25.2543018 16.8269514,23.7579995 C16.3964927,22.3851625 15.9688475,21.0123256 15.5393267,19.6435769 C15.0610393,18.146457 14.5489904,17.3983058 14.0013045,17.3983058 C13.8822016,17.3983058 13.466748,17.6166188 12.7502547,18.0540623 L12,17.2110636 C12.7858918,16.6100897 13.5605298,16.0066629 14.3248518,15.4048713 C15.3714572,14.61502 16.1582868,14.2004706 16.6834652,14.1571351 C17.9213855,14.0524757 18.6847697,14.790815 18.9726799,16.3697002 C19.2793465,18.0745036 19.4950448,19.13418 19.6141477,19.549547 C19.9723943,20.9624489 20.3644024,21.6672645 20.7939233,21.6672645 C21.1268488,21.6672645 21.6276438,21.2110149 22.2953705,20.2976982 C22.9630973,19.3827461 23.3185304,18.6877423 23.367297,18.2085985 C23.4629545,17.4187471 23.1056457,17.0262744 22.2953705,17.0262744 C21.9136784,17.0262744 21.5197947,17.0965924 21.115595,17.2437697 C21.9033624,15.0205751 23.4038719,13.9396398 25.6208746,14.002599 C27.2629947,14.0426639 28.0385705,14.9682454 27.9419752,16.7744377" id="Vimeo" fill="#494B4E"></path>
                            </g>
                        </g>
                    </g>
                </g>
            </g>
        </g>
    </g>
</svg>