<?xml version="1.0" encoding="UTF-8"?>
<svg width="154px" height="154px" viewBox="0 0 154 154" version="1.1" xmlns="http://www.w3.org/2000/svg" xmlns:xlink="http://www.w3.org/1999/xlink">
    <!-- Generator: Sketch 52.3 (67297) - http://www.bohemiancoding.com/sketch -->
    <title>Group 2</title>
    <desc>Created with Sketch.</desc>
    <g id="Symbols" stroke="none" stroke-width="1" fill="none" fill-rule="evenodd">
        <g id="Home-Section-#3B" transform="translate(-1034.000000, -344.000000)">
            <g id="Benefits-#9">
                <g id="Icon-List" transform="translate(167.000000, 346.000000)">
                    <g id="Icons" transform="translate(88.000000, 0.000000)">
                        <g id="Group-2" transform="translate(781.000000, 0.000000)">
                            <circle id="Border" stroke="#747E80" stroke-width="4" opacity="0.6" cx="75" cy="75" r="75"></circle>
                            <g id="Group" transform="translate(38.000000, 51.000000)" fill="#663399">
                                <path d="M72.1452375,17.224509 C72.9925603,17.224509 73.6802426,16.5230017 73.6802426,15.6586445 L73.6802426,1.56586445 C73.6802426,0.701507275 72.9925603,0 72.1452375,0 L1.53500505,0 C0.687682264,0 0,0.701507275 0,1.56586445 L0,15.6586445 C0,16.5230017 0.687682264,17.224509 1.53500505,17.224509 C5.76854899,17.224509 9.21003032,20.7383088 9.21003032,25.0538313 C9.21003032,29.3693537 5.76854899,32.8831535 1.53500505,32.8831535 C0.687682264,32.8831535 0,33.5846608 0,34.449018 L0,48.5417981 C0,49.4061552 0.687682264,50.1076625 1.53500505,50.1076625 L72.1452375,50.1076625 C72.9925603,50.1076625 73.6802426,49.4061552 73.6802426,48.5417981 L73.6802426,34.449018 C73.6802426,33.5846608 72.9925603,32.8831535 72.1452375,32.8831535 C67.9116936,32.8831535 64.4702122,29.3693537 64.4702122,25.0538313 C64.4702122,20.7383088 67.9116936,17.224509 72.1452375,17.224509 L72.1452375,17.224509 Z M70.6102324,35.9021402 L70.6102324,46.9759336 L3.07001011,46.9759336 L3.07001011,35.9021402 C8.27060723,35.1411301 12.2800404,30.5688059 12.2800404,25.0538313 C12.2800404,19.5419884 8.27060723,14.9665324 3.07001011,14.2055223 L3.07001011,3.13172891 L70.6102324,3.13172891 L70.6102324,14.2055223 C65.4096353,14.9665324 61.4002021,19.5419884 61.4002021,25.0538313 C61.4002021,30.5688059 65.4096353,35.1411301 70.6102324,35.9021402 L70.6102324,35.9021402 Z" id="Shape"></path>
                                <polygon id="Rectangle-path" points="55.2601819 4.69759336 58.330192 4.69759336 58.330192 7.82932227 55.2601819 7.82932227"></polygon>
                                <rect id="Rectangle-path" x="55.2601819" y="10.9610512" width="3.07001011" height="3.13172891"></rect>
                                <polygon id="Rectangle-path" points="55.2601819 17.224509 58.330192 17.224509 58.330192 20.3562379 55.2601819 20.3562379"></polygon>
                                <polygon id="Rectangle-path" points="55.2601819 23.4879668 58.330192 23.4879668 58.330192 26.6196957 55.2601819 26.6196957"></polygon>
                                <polygon id="Rectangle-path" points="55.2601819 29.7514246 58.330192 29.7514246 58.330192 32.8831535 55.2601819 32.8831535"></polygon>
                                <polygon id="Rectangle-path" points="55.2601819 36.0148824 58.330192 36.0148824 58.330192 39.1466113 55.2601819 39.1466113"></polygon>
                                <polygon id="Rectangle-path" points="55.2601819 42.2783403 58.330192 42.2783403 58.330192 45.4100692 55.2601819 45.4100692"></polygon>
                                <path d="M47.1369352,11.4182836 C46.5382832,10.8075965 45.56509,10.8075965 44.966438,11.4182836 L20.4063572,36.4721149 C19.8077052,37.082802 19.8077052,38.0755601 20.4063572,38.6862472 C20.7041482,38.9931566 21.0971095,39.1466113 21.4900707,39.1466113 C21.883032,39.1466113 22.2759933,38.9931566 22.5768543,38.6893789 L47.1369352,13.6355477 C47.7355871,13.0248605 47.7355871,12.0321025 47.1369352,11.4182836 L47.1369352,11.4182836 Z" id="Shape"></path>
                                <path d="M24.5600809,21.9221024 C27.946302,21.9221024 30.7001011,19.1129415 30.7001011,15.6586445 C30.7001011,12.2043476 27.946302,9.39518672 24.5600809,9.39518672 C21.1738597,9.39518672 18.4200606,12.2043476 18.4200606,15.6586445 C18.4200606,19.1129415 21.1738597,21.9221024 24.5600809,21.9221024 L24.5600809,21.9221024 Z M24.5600809,12.5269156 C26.2547264,12.5269156 27.630091,13.9330619 27.630091,15.6586445 C27.630091,17.3842272 26.2547264,18.7903734 24.5600809,18.7903734 C22.8654353,18.7903734 21.4900707,17.3842272 21.4900707,15.6586445 C21.4900707,13.9330619 22.8654353,12.5269156 24.5600809,12.5269156 L24.5600809,12.5269156 Z" id="Shape"></path>
                                <path d="M42.9801415,28.1855602 C39.5939203,28.1855602 36.8401213,30.994721 36.8401213,34.449018 C36.8401213,37.903315 39.5939203,40.7124758 42.9801415,40.7124758 C46.3663626,40.7124758 49.1201617,37.903315 49.1201617,34.449018 C49.1201617,30.994721 46.3663626,28.1855602 42.9801415,28.1855602 L42.9801415,28.1855602 Z M42.9801415,37.5807469 C41.2854959,37.5807469 39.9101314,36.1746006 39.9101314,34.449018 C39.9101314,32.7234354 41.2854959,31.3172891 42.9801415,31.3172891 C44.6747871,31.3172891 46.0501516,32.7234354 46.0501516,34.449018 C46.0501516,36.1746006 44.6747871,37.5807469 42.9801415,37.5807469 L42.9801415,37.5807469 Z" id="Shape"></path>
                            </g>
                        </g>
                    </g>
                </g>
            </g>
        </g>
    </g>
</svg>